<svg width="1108" height="202" viewBox="0 0 1108 202" fill="none" xmlns="http://www.w3.org/2000/svg">
<path d="M3.55225 12.6454H50.3986C72.4921 12.6454 85.1754 23.1008 85.1754 23.1008C97.8587 33.5562 97.8587 51.5395 97.8587 51.5395C97.8587 65.3406 90.2896 73.914 90.2896 73.914C82.7206 82.4874 69.8327 83.533 69.8327 83.533V85.415C84.1526 86.4605 92.3353 95.6612 92.3353 95.6612C100.518 104.862 100.518 119.918 100.518 119.918C100.518 129.955 97.1427 137.901 97.1427 137.901C93.7673 145.847 87.528 151.493 87.528 151.493C81.2886 157.139 72.2875 160.171 72.2875 160.171C63.2865 163.203 52.0352 163.203 52.0352 163.203H3.55225V12.6454ZM28.5097 96.2886V141.456H50.3986C61.8545 141.456 68.1962 135.496 68.1962 135.496C74.5378 129.537 74.5378 118.872 74.5378 118.872C74.5378 108.208 68.1962 102.248 68.1962 102.248C61.8545 96.2886 50.3986 96.2886 50.3986 96.2886H28.5097ZM49.9895 74.7505C60.0134 74.7505 65.9459 69.3136 65.9459 69.3136C71.8784 63.8768 71.8784 54.467 71.8784 54.467C71.8784 45.0571 66.0482 39.7249 66.0482 39.7249C60.2179 34.3926 50.1941 34.3926 50.1941 34.3926H28.5097V74.7505H49.9895Z" fill="white"/>
<path d="M143.364 48.1938V68.059H145.205C147.251 57.6037 155.434 51.8532 155.434 51.8532C163.616 46.1027 176.3 46.1027 176.3 46.1027C194.506 46.1027 204.735 57.6037 204.735 57.6037C214.963 69.1046 214.963 89.388 214.963 89.388V97.7524H188.165V91.6882C188.165 80.6055 182.232 74.4368 182.232 74.4368C176.3 68.2681 165.867 68.2682 165.867 68.2682C156.047 68.2682 150.422 74.5414 150.422 74.5414C144.796 80.8146 144.796 91.6882 144.796 91.6882V163.203H119.225V48.1938H143.364Z" fill="white"/>
<path d="M228.147 139.365H268.447V71.823H233.261V48.1938H292.995V139.365H325.522V163.203H228.147V139.365ZM261.082 17.0367C261.082 10.9726 265.072 7.10409 265.072 7.10409C269.061 3.2356 275.607 3.2356 275.607 3.2356H280.926C287.472 3.2356 291.461 7.10409 291.461 7.10409C295.45 10.9726 295.45 17.0367 295.45 17.0367C295.45 23.3099 291.461 27.0739 291.461 27.0739C287.472 30.8378 280.721 30.8378 280.721 30.8378H275.607C269.061 30.8378 265.072 27.0739 265.072 27.0739C261.082 23.3099 261.082 17.0367 261.082 17.0367Z" fill="white"/>
<path d="M335.023 91.0609C335.023 80.6055 337.784 72.3457 337.784 72.3457C340.546 64.0859 345.66 58.2309 345.66 58.2309C350.775 52.3759 357.934 49.2393 357.934 49.2393C365.094 46.1027 373.686 46.1027 373.686 46.1027C385.961 46.1027 393.939 51.9577 393.939 51.9577C401.917 57.8127 403.758 68.059 403.758 68.059H405.804C405.599 64.5042 405.395 60.9493 405.395 60.9493C404.985 57.8127 404.883 54.3624 404.883 54.3624C404.781 50.9122 404.781 48.1937 404.781 48.1937V12.6454H430.352V163.203H405.804V143.129H403.758C401.917 153.584 393.939 159.439 393.939 159.439C385.961 165.294 373.686 165.294 373.686 165.294C365.094 165.294 357.934 162.158 357.934 162.158C350.775 159.021 345.66 153.061 345.66 153.061C340.546 147.102 337.784 138.633 337.784 138.633C335.023 130.164 335.023 119.709 335.023 119.709V91.0609ZM360.594 91.6882V119.081C360.594 129.746 366.526 136.124 366.526 136.124C372.459 142.501 382.892 142.501 382.892 142.501C392.916 142.501 398.848 136.228 398.848 136.228C404.781 129.955 404.781 119.709 404.781 119.709V91.6882C404.781 81.2328 398.746 74.9595 398.746 74.9595C392.711 68.6863 382.892 68.6863 382.892 68.6863C372.459 68.6863 366.526 74.855 366.526 74.855C360.594 81.0237 360.594 91.6882 360.594 91.6882Z" fill="white"/>
<path d="M445.786 90.6427C445.786 80.6055 448.548 72.3458 448.548 72.3458C451.309 64.086 456.423 58.231 456.423 58.231C461.538 52.376 468.698 49.2393 468.698 49.2393C475.858 46.1027 484.654 46.1027 484.654 46.1027C497.337 46.1027 505.52 52.2714 505.52 52.2714C513.703 58.4401 515.749 69.1046 515.749 69.1046H517.181V48.1938H541.729V156.512C541.729 166.131 538.456 173.972 538.456 173.972C535.183 181.814 529.046 187.251 529.046 187.251C522.909 192.687 514.214 195.719 514.214 195.719C505.52 198.751 494.883 198.751 494.883 198.751H464.811V177.004H494.883C504.702 177.004 510.43 171.463 510.43 171.463C516.158 165.922 516.158 156.512 516.158 156.512V153.793L516.976 132.046H515.749C513.703 142.711 505.418 148.879 505.418 148.879C497.133 155.048 484.654 155.048 484.654 155.048C475.858 155.048 468.698 151.807 468.698 151.807C461.538 148.566 456.423 142.815 456.423 142.815C451.309 137.065 448.548 128.805 448.548 128.805C445.786 120.545 445.786 110.508 445.786 110.508V90.6427ZM471.562 109.881C471.562 120.336 477.494 126.296 477.494 126.296C483.427 132.255 493.86 132.255 493.86 132.255C504.088 132.255 510.123 126.296 510.123 126.296C516.158 120.336 516.158 109.881 516.158 109.881V91.27C516.158 80.8146 510.123 74.7505 510.123 74.7505C504.088 68.6864 493.86 68.6864 493.86 68.6864C483.427 68.6864 477.494 74.7505 477.494 74.7505C471.562 80.8146 471.562 91.27 471.562 91.27V109.881Z" fill="white"/>
<path d="M562.277 139.365H602.577V71.823H567.391V48.1938H627.125V139.365H659.652V163.203H562.277V139.365ZM595.212 17.0367C595.212 10.9726 599.201 7.10409 599.201 7.10409C603.191 3.2356 609.737 3.2356 609.737 3.2356H615.056C621.602 3.2356 625.591 7.10409 625.591 7.10409C629.58 10.9726 629.58 17.0367 629.58 17.0367C629.58 23.3099 625.591 27.0739 625.591 27.0739C621.602 30.8378 614.851 30.8378 614.851 30.8378H609.737C603.191 30.8378 599.201 27.0739 599.201 27.0739C595.212 23.3099 595.212 17.0367 595.212 17.0367Z" fill="white"/>
<path d="M671.403 48.1938H695.542V68.059H697.383C699.429 57.3945 707.203 51.7486 707.203 51.7486C714.976 46.1027 727.251 46.1027 727.251 46.1027C744.639 46.1027 754.458 57.6037 754.458 57.6037C764.278 69.1046 764.278 88.1334 764.278 88.1334V163.203H738.706V91.27C738.706 80.6055 733.183 74.6459 733.183 74.6459C727.66 68.6864 718.045 68.6864 718.045 68.6864C708.226 68.6864 702.6 74.8551 702.6 74.8551C696.974 81.0237 696.974 91.6882 696.974 91.6882V163.203H671.403V48.1938Z" fill="white"/>
<path d="M779.916 90.6427C779.916 80.6055 782.678 72.3458 782.678 72.3458C785.439 64.086 790.554 58.231 790.554 58.231C795.668 52.376 802.828 49.2393 802.828 49.2393C809.988 46.1027 818.784 46.1027 818.784 46.1027C831.467 46.1027 839.65 52.2714 839.65 52.2714C847.833 58.4401 849.879 69.1046 849.879 69.1046H851.311V48.1938H875.859V156.512C875.859 166.131 872.586 173.972 872.586 173.972C869.313 181.814 863.176 187.251 863.176 187.251C857.039 192.687 848.344 195.719 848.344 195.719C839.65 198.751 829.013 198.751 829.013 198.751H798.941V177.004H829.013C838.832 177.004 844.56 171.463 844.56 171.463C850.288 165.922 850.288 156.512 850.288 156.512V153.793L851.106 132.046H849.879C847.833 142.711 839.548 148.879 839.548 148.879C831.263 155.048 818.784 155.048 818.784 155.048C809.988 155.048 802.828 151.807 802.828 151.807C795.668 148.566 790.554 142.815 790.554 142.815C785.439 137.065 782.678 128.805 782.678 128.805C779.916 120.545 779.916 110.508 779.916 110.508V90.6427ZM805.692 109.881C805.692 120.336 811.624 126.296 811.624 126.296C817.557 132.255 827.99 132.255 827.99 132.255C838.218 132.255 844.253 126.296 844.253 126.296C850.288 120.336 850.288 109.881 850.288 109.881V91.27C850.288 80.8146 844.253 74.7505 844.253 74.7505C838.218 68.6864 827.99 68.6864 827.99 68.6864C817.557 68.6864 811.624 74.7505 811.624 74.7505C805.692 80.8146 805.692 91.27 805.692 91.27V109.881Z" fill="white"/>
<path d="M895.793 12.6454H988.668V36.6928H921.16V75.3778H983.349V99.4252H921.569V163.203H895.793V12.6454Z" fill="white"/>
<path d="M1007.78 139.365H1048.08V71.823H1012.9V48.1938H1072.63V139.365H1105.16V163.203H1007.78V139.365ZM1040.72 17.0367C1040.72 10.9726 1044.71 7.10409 1044.71 7.10409C1048.7 3.2356 1055.24 3.2356 1055.24 3.2356H1060.56C1067.11 3.2356 1071.1 7.10409 1071.1 7.10409C1075.09 10.9726 1075.09 17.0367 1075.09 17.0367C1075.09 23.3099 1071.1 27.0739 1071.1 27.0739C1067.11 30.8378 1060.36 30.8378 1060.36 30.8378H1055.24C1048.7 30.8378 1044.71 27.0739 1044.71 27.0739C1040.72 23.3099 1040.72 17.0367 1040.72 17.0367Z" fill="white"/>
</svg>
