<svg xmlns="http://www.w3.org/2000/svg" viewBox="0 0 197 92" fill="none"><path fill-rule="evenodd" d="M45.721 73.893c11.443 0 19.779-8.892 26.682-16.083l-.023-.018 37.26-35.665C119.5 11.501 132.997.569 149.941.569c25.417 0 46.998 19.374 46.998 44.434s-21.581 44.434-46.998 44.434c-14.988 0-28.478-6.653-37.138-17.195l13.392-10.927c5.358 6.523 13.925 10.872 23.746 10.872 16.936 0 29.69-12.691 29.69-27.184s-12.754-27.184-29.69-27.184c-11.418 0-19.441 6.682-26.073 14.176l-.03-.018L86.85 67.352c-7.85 8.148-23.074 23.79-41.13 23.79-16.935 0-31.707-9.181-39.599-22.78l14.982-8.637c4.926 8.488 14.111 14.167 24.617 14.167zM1.24 51.231v.232h8.654 33.784 8.654v-17.25h-8.654-23.992c4.391-9.987 14.396-16.962 26.035-16.962 9.863 0 18.558 5.003 23.665 12.641l14.403-9.565C75.609 8.091 61.615 0 45.721 0 24.404 0 6.495 14.541 1.432 34.213H1.24v.774C.429 38.383 0 41.928 0 45.572a45.72 45.72 0 0 0 .364 5.77l.876-.11z" fill="url(#A)"/><defs><linearGradient id="A" x1="98.469" y1="0" x2="98.469" y2="91.143" gradientUnits="userSpaceOnUse"><stop stop-color="#d100ff"/><stop offset="1" stop-color="#7503ff"/></linearGradient></defs></svg>